<?xml version="1.0" encoding="UTF-8"?>
<svg width="980px" height="605px" viewBox="0 0 980 605" version="1.1" xmlns="http://www.w3.org/2000/svg" xmlns:xlink="http://www.w3.org/1999/xlink">
    <!-- Generator: Sketch 49.1 (51147) - http://www.bohemiancoding.com/sketch -->
    <title>banner</title>
    <desc>Created with Sketch.</desc>
    <defs>
        <path d="M141.153904,54.7043732 C136.518705,23.9138402 108.708979,0.247685063 75.08949,0.247685063 C43.6475625,0.247685063 17.2895432,20.9465735 10.2113703,48.8109703 L10.2113703,50.4591253 C10.2113703,50.4591253 11.9387554,50.6030818 23.3163282,50.7470383 C34.6924346,50.8909948 70.8414132,49.8818304 79.0501582,49.15911 C83.3832846,48.7786535 86.9450998,47.7783027 89.921833,47.2568276 C90.285493,47.1936631 90.6403548,47.1378432 90.9864183,47.090837 C91.5627021,47.012983 92.1125913,46.9645078 92.6434176,46.9468805 C98.2449549,47.0599892 102.755512,51.6328115 102.755512,57.2706182 C102.755512,57.5761585 102.734983,57.877292 102.710055,58.1754876 C102.701256,58.244528 102.695391,58.3120994 102.685126,58.3826087 C102.670463,58.4766211 102.66753,58.5618199 102.652866,58.6573012 C102.639669,58.7483757 102.625005,58.8394503 102.611808,58.9305248 C102.544355,59.343298 102.459305,59.7487265 102.343462,60.1438724 C101.336065,64.4625675 98.869629,69.9872655 95.0380015,77.148367 C85.3892801,95.1811223 60.6178744,97.779684 34.551663,103.840547 C30.9795831,104.667562 27.7623651,105.259546 24.8662823,105.663506 C6.61289579,108.20331 1.14039911,103.263252 1.14039911,103.263252 C-0.299577236,111.195549 4.3092269,119.130784 5.46032816,120.430799 C6.61289579,121.727876 13.2364937,132.404161 14.5342321,134.278533 C15.8290377,136.154374 19.861558,145.244199 22.0229889,146.109407 C24.1829534,146.974615 26.9192018,146.974615 26.9192018,146.974615 C39.4434767,146.312121 51.5454368,140.91669 56.585354,137.743772 C61.6252712,134.570853 72.713969,129.952493 75.737626,128.797903 C76.2787169,128.590782 77.6541729,128.020832 79.5648544,127.21732 C88.3088248,123.528802 108.365848,114.875253 112.028843,113.216815 C115.911793,111.461427 121.209792,108.504443 124.231982,106.816627 C124.682158,106.5625 125.08541,106.337751 125.424142,106.151195 C128.01522,104.708692 134.204772,100.378246 134.204772,100.378246 C137.43812,92.7940884 139.216828,83.8217791 140.079054,78.3543699 C141.230155,73.6831283 141.838699,68.8135793 141.838699,63.8074185 C141.838699,60.7123537 141.602613,57.6760467 141.153904,54.7043732 Z" id="path-1"></path>
    </defs>
    <g id="Page-1" stroke="none" stroke-width="1" fill="none" fill-rule="evenodd">
        <g id="github-banner" transform="translate(-16.000000, -21.000000)">
            <g id="Group-2" transform="translate(379.000000, 177.000000)">
                <g id="noun_10709_cc" transform="translate(131.000000, 149.500000) scale(-1, 1) translate(-131.000000, -149.500000) translate(59.000000, 76.000000)">
                    <g id="Group">
                        <path d="M94.8003193,50.8190166 C90.9833555,50.8190166 87.890779,53.9199572 87.890779,57.7436181 C87.890779,61.568748 90.9833555,64.6682196 94.8003193,64.6682196 C98.6187494,64.6682196 101.714259,61.568748 101.714259,57.7436181 C101.714259,53.9199572 98.6202158,50.8190166 94.8003193,50.8190166 Z M94.8003193,61.8551921 C92.5347761,61.8551921 90.6959468,60.0146054 90.6959468,57.7436181 C90.6959468,55.4740998 92.5347761,53.6320442 94.8003193,53.6320442 C97.0687953,53.6320442 98.9061582,55.4726309 98.9061582,57.7436181 C98.9061582,60.0146054 97.0687953,61.8551921 94.8003193,61.8551921 Z" id="Shape" fill="#343334"></path>
                        <path d="M11.1423858,50.3548303 C9.81092092,50.5501999 8.96775758,50.7661346 8.70381079,50.9938209 C8.64515595,51.043765 8.60849667,51.0922402 8.60849667,51.1436532 C8.60849667,51.1803768 8.6275595,51.2171004 8.65835329,51.253824 L0.476002956,98.6228578 C0.385087953,98.9269292 0.327899483,99.2515658 0.308836659,99.5894229 C0.304437546,99.6760906 0.298572062,99.7627583 0.298572062,99.8508949 C0.298572062,101.406506 1.10067701,102.712398 2.18725795,103.100199 L3.32222912,96.5398954 L11.0294752,51.9163177 L11.2963548,50.3798024 L11.1423858,50.3548303 Z" id="Shape" fill="#343334"></path>
                        <g id="Rectangle" transform="translate(2.000000, 0.000000)">
                            <mask id="mask-2" fill="white">
                                <use xlink:href="#path-1"></use>
                            </mask>
                            <use id="Mask" fill="#E1E1E1" xlink:href="#path-1"></use>
                            <rect fill="#AFAFAF" mask="url(#mask-2)" x="9" y="32" width="149" height="26"></rect>
                            <rect id="Rectangle-Copy" fill="#B2B2B2" mask="url(#mask-2)" x="-3" y="87" width="149" height="26"></rect>
                        </g>
                    </g>
                </g>
                <path d="M127.5,4.03991332 L3.5,75.5222663 L3.5,218.477734 L127.5,289.960087 L251.5,218.477734 L251.5,75.5222663 L127.5,4.03991332 Z" id="Polygon-Copy-3" stroke="#343334" stroke-width="7"></path>
            </g>
        </g>
    </g>
</svg>